<?xml version="1.0" encoding="UTF-8"?>
<svg width="809px" height="550px" viewBox="0 0 809 550" version="1.1" xmlns="http://www.w3.org/2000/svg" xmlns:xlink="http://www.w3.org/1999/xlink">
    <!-- Generator: Sketch 61.2 (89653) - https://sketch.com -->
    <title>Group 2</title>
    <desc>Created with Sketch.</desc>
    <g id="Annotazioni-&amp;-Varie" stroke="none" stroke-width="1" fill="none" fill-rule="evenodd">
        <g id="Group-2">
            <rect id="Rectangle" fill="#D8D8D8" x="0" y="0" width="809" height="550"></rect>
            <g id="missing_image_placeholder" transform="translate(35.000000, 28.000000)">
                <path d="M118.966667,367.4 L101.3,382.066667 C94.2333333,387.933333 94.2333333,396.733333 101.3,402.6 C104.833333,405.533333 109.25,407 113.666667,407 C118.083333,407 122.5,405.533333 126.033333,402.6 L143.7,387.933333 C150.766667,382.066667 150.766667,373.266667 143.7,367.4 C136.633333,361.533333 126.033333,361.533333 118.966667,367.4 Z" id="Path" fill="#FFFFFF" fill-rule="nonzero"></path>
                <path d="M158,41 C109.6,41 70,77.45 70,122 C70,166.55 109.6,203 158,203 C206.4,203 246,166.55 246,122 C246,77.45 206.4,41 158,41 Z M158,171 C128.85,171 105,149.175 105,122.5 C105,95.825 128.85,74 158,74 C187.15,74 211,95.825 211,122.5 C211,149.175 187.15,171 158,171 Z" id="Shape" fill="#FFFFFF" fill-rule="nonzero"></path>
                <path d="M164,350.671558 C229.912789,292.223853 265.400094,263 270.461915,263 C275.523736,263 316.857069,299.40227 394.461915,372.206811" id="Line" stroke="#FFFFFF" stroke-width="31" stroke-linecap="square"></path>
                <path d="M318,463.108178 C473.871611,289.702726 557.792554,203 569.762829,203 C581.733104,203 639.478827,261.257155 743,377.771466" id="Line" stroke="#FFFFFF" stroke-width="31" stroke-linecap="square"></path>
            </g>
        </g>
    </g>
</svg>